{"asset":{"version":"2.0","generator":"Blockbench 4.11.1 glTF exporter"},"scenes":[{"nodes":[5],"name":"blockbench_export"}],"scene":0,"nodes":[{"translation":[0,1,0],"name":"Door","mesh":0},{"translation":[-0.09374999999999997,0.0625,0.1875],"name":"Hinge","mesh":1},{"translation":[-0.09374999999999997,1.875,0.1875],"name":"Hinge","mesh":2},{"translation":[-0.125,1.4375,0],"name":"PeepHole","mesh":3},{"translation":[-0.0625,1,-0.625],"name":"Lock","mesh":4},{"children":[0,1,2,3,4]}],"bufferViews":[{"buffer":0,"byteOffset":0,"byteLength":1920,"target":34962,"byteStride":12},{"buffer":0,"byteOffset":1920,"byteLength":1920,"target":34962,"byteStride":12},{"buffer":0,"byteOffset":3840,"byteLength":1280,"target":34962,"byteStride":8},{"buffer":0,"byteOffset":5120,"byteLength":480,"target":34963},{"buffer":0,"byteOffset":5600,"byteLength":2112,"target":34962,"byteStride":12},{"buffer":0,"byteOffset":7712,"byteLength":2112,"target":34962,"byteStride":12},{"buffer":0,"byteOffset":9824,"byteLength":1408,"target":34962,"byteStride":8},{"buffer":0,"byteOffset":11232,"byteLength":516,"target":34963},{"buffer":0,"byteOffset":11748,"byteLength":2112,"target":34962,"byteStride":12},{"buffer":0,"byteOffset":13860,"byteLength":2112,"target":34962,"byteStride":12},{"buffer":0,"byteOffset":15972,"byteLength":1408,"target":34962,"byteStride":8},{"buffer":0,"byteOffset":17380,"byteLength":516,"target":34963},{"buffer":0,"byteOffset":17896,"byteLength":480,"target":34962,"byteStride":12},{"buffer":0,"byteOffset":18376,"byteLength":480,"target":34962,"byteStride":12},{"buffer":0,"byteOffset":18856,"byteLength":320,"target":34962,"byteStride":8},{"buffer":0,"byteOffset":19176,"byteLength":120,"target":34963},{"buffer":0,"byteOffset":19296,"byteLength":1056,"target":34962,"byteStride":12},{"buffer":0,"byteOffset":20352,"byteLength":1056,"target":34962,"byteStride":12},{"buffer":0,"byteOffset":21408,"byteLength":704,"target":34962,"byteStride":8},{"buffer":0,"byteOffset":22112,"byteLength":264,"target":34963}],"buffers":[{"byteLength":22376,"uri":"data:application/octet-stream;base64,"}],"accessors":[{"bufferView":0,"componentType":5126,"count":160,"max":[0.0625,1.9375,0.875],"min":[-0.0625,-1,-0.875],"type":"VEC3"},{"bufferView":1,"componentType":5126,"count":160,"max":[1,0.9615239500999451,1],"min":[-1,-1,-1],"type":"VEC3"},{"bufferView":2,"componentType":5126,"count":160,"max":[1,1],"min":[0,0],"type":"VEC2"},{"bufferView":3,"componentType":5123,"count":240,"max":[159],"min":[0],"type":"SCALAR"},{"bufferView":4,"componentType":5126,"count":176,"max":[0.03125,0.36706578731536865,0.8125],"min":[-0.03125,0.13293421268463135,-0.8125],"type":"VEC3"},{"bufferView":5,"componentType":5126,"count":176,"max":[1,0.9999979138374329,1],"min":[-0.9999979138374329,-0.9999979138374329,-0.9728083610534668],"type":"VEC3"},{"bufferView":6,"componentType":5126,"count":176,"max":[1,1],"min":[0,0],"type":"VEC2"},{"bufferView":7,"componentType":5123,"count":258,"max":[175],"min":[0],"type":"SCALAR"},{"bufferView":8,"componentType":5126,"count":176,"max":[0.03125,0.36706578731536865,0.8125],"min":[-0.03125,0.13293421268463135,-0.8125],"type":"VEC3"},{"bufferView":9,"componentType":5126,"count":176,"max":[1,0.9999979138374329,1],"min":[-0.9999979138374329,-0.9999979138374329,-0.9728083610534668],"type":"VEC3"},{"bufferView":10,"componentType":5126,"count":176,"max":[1,1],"min":[0,0],"type":"VEC2"},{"bufferView":11,"componentType":5123,"count":258,"max":[175],"min":[0],"type":"SCALAR"},{"bufferView":12,"componentType":5126,"count":40,"max":[0.0625,0.5,0.21875],"min":[0,0,-0.21875],"type":"VEC3"},{"bufferView":13,"componentType":5126,"count":40,"max":[1,1,0.8944271802902222],"min":[-1,-1,-0.8944271802902222],"type":"VEC3"},{"bufferView":14,"componentType":5126,"count":40,"max":[1,1],"min":[0,0],"type":"VEC2"},{"bufferView":15,"componentType":5123,"count":60,"max":[39],"min":[0],"type":"SCALAR"},{"bufferView":16,"componentType":5126,"count":88,"max":[0.03125,0.375,0.25],"min":[-0.05624999850988388,0.125,-0.3125],"type":"VEC3"},{"bufferView":17,"componentType":5126,"count":88,"max":[1,1,1],"min":[-1,-1,-1],"type":"VEC3"},{"bufferView":18,"componentType":5126,"count":88,"max":[1,1],"min":[0,0],"type":"VEC2"},{"bufferView":19,"componentType":5123,"count":132,"max":[87],"min":[0],"type":"SCALAR"}],"materials":[{"pbrMetallicRoughness":{"metallicFactor":0,"roughnessFactor":1},"alphaMode":"MASK","alphaCutoff":0.05,"doubleSided":true},{"pbrMetallicRoughness":{"metallicFactor":0,"roughnessFactor":1},"alphaMode":"MASK","alphaCutoff":0.05,"doubleSided":true}],"meshes":[{"primitives":[{"mode":4,"attributes":{"POSITION":0,"NORMAL":1,"TEXCOORD_0":2},"indices":3,"material":0}]},{"primitives":[{"mode":4,"attributes":{"POSITION":4,"NORMAL":5,"TEXCOORD_0":6},"indices":7,"material":0}]},{"primitives":[{"mode":4,"attributes":{"POSITION":8,"NORMAL":9,"TEXCOORD_0":10},"indices":11,"material":0}]},{"primitives":[{"mode":4,"attributes":{"POSITION":12,"NORMAL":13,"TEXCOORD_0":14},"indices":15,"material":1}]},{"primitives":[{"mode":4,"attributes":{"POSITION":16,"NORMAL":17,"TEXCOORD_0":18},"indices":19,"material":1}]}]}