# Blender 4.2.3 LTS
# www.blender.org
mtllib Furnace.mtl
o Cube
v -0.771650 -0.189305 0.771650
v -0.771650 0.842723 0.771650
v -0.771650 -0.189305 -0.771650
v -0.771650 0.842723 -0.771650
v 0.771650 -0.189305 0.771650
v 0.771650 0.842723 0.771650
v 0.771650 -0.189305 -0.771650
v 0.771650 0.842723 -0.771650
v 0.771650 0.326709 -0.771650
v 0.573773 -0.189305 0.470862
v 0.573773 -0.189305 -0.477044
v 0.771650 0.326709 0.771650
v 0.573773 0.326709 0.470862
v 0.573773 0.326709 -0.477044
v -0.413235 -0.189305 0.470862
v -0.413235 -0.189305 -0.477044
v -0.413235 0.326709 -0.477044
v -0.413235 0.326709 0.470862
v -0.771650 0.842723 0.000000
v 0.000000 0.842723 -0.771650
v 0.000000 0.842723 0.771650
v 0.771650 0.842723 0.000000
v 0.000000 0.618401 0.000000
v -0.771650 0.842723 -0.385825
v 0.385825 0.842723 -0.771650
v -0.771650 0.842723 0.385825
v -0.385825 0.842723 0.771650
v 0.771650 0.842723 0.385825
v -0.385825 0.842723 -0.771650
v 0.385825 0.842723 0.771650
v 0.771650 0.842723 -0.385825
v 0.000000 0.674290 0.385825
v 0.000000 0.674290 -0.385825
v 0.385825 0.674290 0.000000
v -0.385825 0.674290 0.000000
v -0.385825 0.674290 -0.385825
v 0.385825 0.674290 -0.385825
v -0.385825 0.674290 0.385825
v 0.385825 0.674290 0.385825
vn -1.0000 -0.0000 -0.0000
vn -0.0000 -0.0000 -1.0000
vn 0.8301 -0.0000 0.5576
vn -0.0000 -0.0000 1.0000
vn -0.0000 0.9165 -0.4001
vn 0.2086 0.9555 -0.2086
vn 0.8354 -0.0000 -0.5496
vn 0.9553 -0.2957 -0.0000
vn 1.0000 -0.0000 -0.0000
vn -0.0721 0.9948 0.0721
vn -0.0000 -1.0000 -0.0000
vn 0.4001 0.9165 -0.0000
vn 0.0721 0.9948 0.0721
vn -0.0000 0.9165 0.4001
vn 0.2086 0.9555 0.2086
vn -0.4001 0.9165 -0.0000
vn -0.2086 0.9555 0.2086
vn 0.0721 0.9948 -0.0721
vn -0.2086 0.9555 -0.2086
vn -0.0721 0.9948 -0.0721
vt 0.375000 0.000000
vt 0.625000 0.000000
vt 0.625000 0.062500
vt 0.625000 0.125000
vt 0.625000 0.187500
vt 0.625000 0.250000
vt 0.375000 0.250000
vt 0.625000 0.312500
vt 0.625000 0.375000
vt 0.625000 0.437500
vt 0.625000 0.500000
vt 0.500000 0.500000
vt 0.375000 0.500000
vt 0.500000 0.562500
vt 0.375000 0.562500
vt 0.375000 0.750000
vt 0.500000 0.750000
vt 0.625000 0.750000
vt 0.625000 0.812500
vt 0.625000 0.875000
vt 0.625000 0.937500
vt 0.625000 1.000000
vt 0.375000 1.000000
vt 0.687500 0.687500
vt 0.750000 0.687500
vt 0.750000 0.750000
vt 0.687500 0.750000
vt 0.812500 0.687500
vt 0.875000 0.687500
vt 0.875000 0.750000
vt 0.812500 0.750000
vt 0.375000 0.625000
vt 0.500000 0.625000
vt 0.625000 0.562500
vt 0.625000 0.625000
vt 0.625000 0.687500
vt 0.687500 0.562500
vt 0.750000 0.562500
vt 0.750000 0.625000
vt 0.687500 0.625000
vt 0.812500 0.562500
vt 0.875000 0.562500
vt 0.875000 0.625000
vt 0.812500 0.625000
vt 0.750000 0.500000
vt 0.812500 0.500000
vt 0.875000 0.500000
vt 0.687500 0.500000
s 0
usemtl Material
f 1/1/1 2/2/1 26/3/1 19/4/1 24/5/1 4/6/1 3/7/1
f 3/7/2 4/6/2 29/8/2 20/9/2 25/10/2 8/11/2 9/12/2 7/13/2
f 7/13/3 9/12/3 14/14/3 11/15/3
f 5/16/4 12/17/4 6/18/4 30/19/4 21/20/4 27/21/4 2/22/4 1/23/4
f 39/24/5 32/25/5 21/26/5 30/27/5
f 38/28/6 26/29/6 2/30/6 27/31/6
f 10/32/7 13/33/7 12/17/7 5/16/7
f 11/15/4 14/14/4 17/14/4 16/15/4
f 9/12/8 8/11/8 31/34/8 22/35/8 28/36/8 6/18/8 12/17/8 13/33/8 14/14/8
f 16/15/9 17/14/9 18/33/9 15/32/9
f 13/33/2 10/32/2 15/32/2 18/33/2
f 37/37/10 33/38/10 23/39/10 34/40/10
f 14/14/11 13/33/11 18/33/11 17/14/11
f 36/41/12 24/42/12 19/43/12 35/44/12
f 33/38/13 36/41/13 35/44/13 23/39/13
f 20/45/14 29/46/14 36/41/14 33/38/14
f 29/46/15 4/47/15 24/42/15 36/41/15
f 31/34/16 37/37/16 34/40/16 22/35/16
f 8/11/17 25/48/17 37/37/17 31/34/17
f 25/48/14 20/45/14 33/38/14 37/37/14
f 32/25/5 38/28/5 27/31/5 21/26/5
f 23/39/18 35/44/18 38/28/18 32/25/18
f 35/44/12 19/43/12 26/29/12 38/28/12
f 28/36/19 39/24/19 30/27/19 6/18/19
f 22/35/16 34/40/16 39/24/16 28/36/16
f 34/40/20 23/39/20 32/25/20 39/24/20
