{"asset":{"version":"2.0","generator":"Blockbench 4.11.1 glTF exporter"},"scenes":[{"nodes":[1],"name":"blockbench_export"}],"scene":0,"nodes":[{"translation":[-0.9375,0,0],"name":"Stairs","mesh":0},{"children":[0]}],"bufferViews":[{"buffer":0,"byteOffset":0,"byteLength":2256,"target":34962,"byteStride":12},{"buffer":0,"byteOffset":2256,"byteLength":2256,"target":34962,"byteStride":12},{"buffer":0,"byteOffset":4512,"byteLength":1504,"target":34962,"byteStride":8},{"buffer":0,"byteOffset":6016,"byteLength":564,"target":34963}],"buffers":[{"byteLength":6580,"uri":"data:application/octet-stream;base64,"}],"accessors":[{"bufferView":0,"componentType":5126,"count":188,"max":[2.0625,1.3125,1.5],"min":[-0.5,0,-1.5],"type":"VEC3"},{"bufferView":1,"componentType":5126,"count":188,"max":[1,1,1],"min":[-1,-1,-1],"type":"VEC3"},{"bufferView":2,"componentType":5126,"count":188,"max":[1,1.3125],"min":[0,0],"type":"VEC2"},{"bufferView":3,"componentType":5123,"count":282,"max":[187],"min":[0],"type":"SCALAR"}],"materials":[{"pbrMetallicRoughness":{"metallicFactor":0,"roughnessFactor":1},"alphaMode":"MASK","alphaCutoff":0.05,"doubleSided":true}],"meshes":[{"primitives":[{"mode":4,"attributes":{"POSITION":0,"NORMAL":1,"TEXCOORD_0":2},"indices":3,"material":0}]}]}