# Blender 4.2.3 LTS
# www.blender.org
mtllib WallScone.mtl
o Cube
v -0.330084 0.040467 -0.458034
v -0.962017 -0.858628 -0.470912
v -0.330084 0.040467 -0.374400
v -0.962017 -0.858628 -0.361522
v -0.424396 0.040467 -0.458034
v -1.102372 -0.609274 -0.445883
v -0.424396 0.040467 -0.374400
v -1.102372 -0.609274 -0.386552
v -1.072810 -1.047573 -0.470912
v -1.072810 -1.047573 -0.361522
v -1.041716 -0.918541 -0.470912
v -1.041716 -0.918541 -0.361522
v -1.209967 -0.666498 -0.521600
v -1.209967 -0.666498 -0.310834
v -1.209967 -1.115438 -0.521600
v -1.209967 -1.115438 -0.310834
v -1.160704 -0.122645 -0.452368
v -1.160704 -0.122645 -0.380067
v -1.189265 0.082648 -0.482869
v -1.189265 0.082648 -0.349565
v -0.374356 0.087555 -0.220735
v -0.382435 0.035603 -0.242944
v -0.413571 0.087555 -0.224597
v -0.416866 0.035603 -0.246335
v -0.451278 0.087555 -0.236036
v -0.449973 0.035603 -0.256378
v -0.486030 0.087555 -0.254611
v -0.480484 0.035603 -0.272687
v -0.516489 0.087555 -0.279608
v -0.507228 0.035603 -0.294635
v -0.541487 0.087555 -0.310068
v -0.529176 0.035603 -0.321379
v -0.560062 0.087555 -0.344819
v -0.545484 0.035603 -0.351890
v -0.571500 0.087555 -0.382527
v -0.555527 0.035603 -0.384997
v -0.575363 0.087555 -0.421741
v -0.558918 0.035603 -0.419427
v -0.571500 0.087555 -0.460956
v -0.555527 0.035603 -0.453858
v -0.560062 0.087555 -0.498663
v -0.545484 0.035603 -0.486965
v -0.541487 0.087555 -0.533414
v -0.529176 0.035603 -0.517476
v -0.516489 0.087555 -0.563874
v -0.507228 0.035603 -0.544220
v -0.486030 0.087555 -0.588872
v -0.480484 0.035603 -0.566168
v -0.451278 0.087555 -0.607447
v -0.449973 0.035603 -0.582476
v -0.413571 0.087555 -0.618885
v -0.416866 0.035603 -0.592519
v -0.374356 0.087555 -0.622747
v -0.382435 0.035603 -0.595910
v -0.335142 0.087555 -0.618885
v -0.348005 0.035603 -0.592519
v -0.297435 0.087555 -0.607447
v -0.314898 0.035603 -0.582476
v -0.262683 0.087555 -0.588872
v -0.284387 0.035603 -0.566168
v -0.232224 0.087555 -0.563874
v -0.257643 0.035603 -0.544220
v -0.207226 0.087555 -0.533414
v -0.235695 0.035603 -0.517476
v -0.188651 0.087555 -0.498663
v -0.219386 0.035603 -0.486965
v -0.177212 0.087555 -0.460956
v -0.209343 0.035603 -0.453858
v -0.173350 0.087555 -0.421741
v -0.205952 0.035603 -0.419427
v -0.177212 0.087555 -0.382527
v -0.209343 0.035603 -0.384997
v -0.188651 0.087555 -0.344819
v -0.219386 0.035603 -0.351890
v -0.207226 0.087555 -0.310068
v -0.235695 0.035603 -0.321379
v -0.232224 0.087555 -0.279608
v -0.257643 0.035603 -0.294635
v -0.262683 0.087555 -0.254611
v -0.284387 0.035603 -0.272687
v -0.297435 0.087555 -0.236036
v -0.314898 0.035603 -0.256378
v -0.335142 0.087555 -0.224597
v -0.348005 0.035603 -0.246335
v -0.374356 0.064527 -0.258515
v -0.406200 0.064527 -0.261652
v -0.436820 0.064527 -0.270940
v -0.465040 0.064527 -0.286024
v -0.489775 0.064527 -0.306323
v -0.510074 0.064527 -0.331058
v -0.525157 0.064527 -0.359277
v -0.534446 0.064527 -0.389897
v -0.537582 0.064527 -0.421741
v -0.534446 0.064527 -0.453585
v -0.525157 0.064527 -0.484205
v -0.510074 0.064527 -0.512425
v -0.489775 0.064527 -0.537159
v -0.465040 0.064527 -0.557459
v -0.436820 0.064527 -0.572542
v -0.406200 0.064527 -0.581831
v -0.374356 0.064527 -0.584967
v -0.342513 0.064527 -0.581831
v -0.311893 0.064527 -0.572542
v -0.283673 0.064527 -0.557459
v -0.258938 0.064527 -0.537159
v -0.238639 0.064527 -0.512425
v -0.223555 0.064527 -0.484205
v -0.214267 0.064527 -0.453585
v -0.211131 0.064527 -0.421741
v -0.214267 0.064527 -0.389897
v -0.223555 0.064527 -0.359277
v -0.238639 0.064527 -0.331058
v -0.258938 0.064527 -0.306323
v -0.283673 0.064527 -0.286024
v -0.311893 0.064527 -0.270940
v -0.342513 0.064527 -0.261652
vn -0.0000 1.0000 -0.0000
vn -0.0558 0.0476 0.9973
vn -0.6919 0.7220 -0.0000
vn -0.1027 0.0602 -0.9929
vn 0.8181 -0.5750 -0.0000
vn -0.0558 0.0476 -0.9973
vn 0.9722 -0.2343 -0.0000
vn -0.1027 0.0602 0.9929
vn 0.4423 0.0400 0.8960
vn 0.6009 -0.7993 -0.0000
vn -1.0000 -0.0000 -0.0000
vn 0.4435 -0.8963 -0.0000
vn 0.4423 0.0400 -0.8960
vn -0.9996 0.0276 -0.0000
vn 0.9905 0.1378 -0.0000
vn 0.6410 0.0395 -0.7665
vn 0.6410 0.0395 0.7665
vn 0.9929 0.1190 -0.0000
vn 0.0907 0.3795 -0.9207
vn 0.2712 0.3569 -0.8939
vn 0.4439 0.3364 -0.8305
vn 0.6012 0.3191 -0.7326
vn 0.7360 0.3059 -0.6040
vn 0.8420 0.2975 -0.4501
vn 0.9145 0.2944 -0.2774
vn 0.9504 0.2967 -0.0936
vn 0.9480 0.3042 0.0934
vn 0.9077 0.3167 0.2753
vn 0.8315 0.3334 0.4444
vn 0.7231 0.3534 0.5934
vn 0.5879 0.3758 0.7163
vn 0.4322 0.3995 0.8085
vn 0.2630 0.4233 0.8670
vn 0.0877 0.4464 0.8905
vn -0.0866 0.4678 0.8796
vn -0.2535 0.4870 0.8358
vn -0.4074 0.5032 0.7621
vn -0.5433 0.5163 0.6620
vn -0.6575 0.5259 0.5396
vn -0.7469 0.5318 0.3992
vn -0.8091 0.5339 0.2454
vn -0.8424 0.5324 0.0830
vn -0.8458 0.5270 -0.0833
vn -0.8185 0.5180 -0.2483
vn -0.7609 0.5055 -0.4067
vn -0.6740 0.4897 -0.5531
vn -0.5596 0.4710 -0.6819
vn -0.4210 0.4499 -0.7876
vn -0.2625 0.4271 -0.8653
vn -0.0897 0.4033 -0.9107
vn 0.0512 -0.8528 0.5198
vn -0.0000 -1.0000 -0.0000
vn -0.4998 -0.8528 -0.1516
vn 0.2462 -0.8528 -0.4606
vn 0.4037 -0.8528 0.3313
vn -0.4606 -0.8528 0.2462
vn -0.1516 -0.8528 -0.4998
vn 0.5198 -0.8528 -0.0512
vn -0.1516 -0.8528 0.4998
vn -0.4606 -0.8528 -0.2462
vn 0.3313 -0.8528 -0.4037
vn 0.3313 -0.8528 0.4037
vn -0.4998 -0.8528 0.1516
vn -0.0512 -0.8528 -0.5198
vn 0.5198 -0.8528 0.0512
vn -0.2462 -0.8528 0.4606
vn -0.4037 -0.8528 -0.3313
vn 0.4037 -0.8528 -0.3313
vn 0.2462 -0.8528 0.4606
vn -0.5198 -0.8528 0.0512
vn 0.0512 -0.8528 -0.5198
vn 0.4998 -0.8528 0.1516
vn -0.3313 -0.8528 0.4037
vn -0.3313 -0.8528 -0.4037
vn 0.4606 -0.8528 -0.2462
vn 0.1516 -0.8528 0.4998
vn -0.5198 -0.8528 -0.0512
vn 0.1516 -0.8528 -0.4998
vn 0.4606 -0.8528 0.2462
vn -0.4037 -0.8528 0.3313
vn -0.2462 -0.8528 -0.4606
vn 0.4998 -0.8528 -0.1516
vn -0.0512 -0.8528 0.5198
vt 0.625000 0.500000
vt 0.875000 0.500000
vt 0.875000 0.750000
vt 0.625000 0.750000
vt 0.375000 0.750000
vt 0.625000 1.000000
vt 0.375000 1.000000
vt 0.375000 0.000000
vt 0.625000 0.000000
vt 0.625000 0.250000
vt 0.375000 0.250000
vt 0.375000 0.500000
vt 0.125000 0.500000
vt 0.125000 0.750000
vt 1.000000 0.500000
vt 1.000000 1.000000
vt 0.968750 1.000000
vt 0.968750 0.500000
vt 0.937500 1.000000
vt 0.937500 0.500000
vt 0.906250 1.000000
vt 0.906250 0.500000
vt 0.875000 1.000000
vt 0.843750 1.000000
vt 0.843750 0.500000
vt 0.812500 1.000000
vt 0.812500 0.500000
vt 0.781250 1.000000
vt 0.781250 0.500000
vt 0.750000 1.000000
vt 0.750000 0.500000
vt 0.718750 1.000000
vt 0.718750 0.500000
vt 0.687500 1.000000
vt 0.687500 0.500000
vt 0.656250 1.000000
vt 0.656250 0.500000
vt 0.593750 1.000000
vt 0.593750 0.500000
vt 0.562500 1.000000
vt 0.562500 0.500000
vt 0.531250 1.000000
vt 0.531250 0.500000
vt 0.500000 1.000000
vt 0.500000 0.500000
vt 0.468750 1.000000
vt 0.468750 0.500000
vt 0.437500 1.000000
vt 0.437500 0.500000
vt 0.406250 1.000000
vt 0.406250 0.500000
vt 0.343750 1.000000
vt 0.343750 0.500000
vt 0.312500 1.000000
vt 0.312500 0.500000
vt 0.281250 1.000000
vt 0.281250 0.500000
vt 0.250000 1.000000
vt 0.250000 0.500000
vt 0.218750 1.000000
vt 0.218750 0.500000
vt 0.187500 1.000000
vt 0.187500 0.500000
vt 0.156250 1.000000
vt 0.156250 0.500000
vt 0.125000 1.000000
vt 0.093750 1.000000
vt 0.093750 0.500000
vt 0.062500 1.000000
vt 0.062500 0.500000
vt 0.296822 0.485388
vt 0.250000 0.490000
vt 0.203178 0.485388
vt 0.158156 0.471731
vt 0.116663 0.449553
vt 0.080294 0.419706
vt 0.050447 0.383337
vt 0.028269 0.341844
vt 0.014612 0.296822
vt 0.010000 0.250000
vt 0.014612 0.203178
vt 0.028269 0.158156
vt 0.050447 0.116663
vt 0.080294 0.080294
vt 0.116663 0.050447
vt 0.158156 0.028269
vt 0.203178 0.014612
vt 0.250000 0.010000
vt 0.296822 0.014612
vt 0.341844 0.028269
vt 0.383337 0.050447
vt 0.419706 0.080294
vt 0.449553 0.116663
vt 0.471731 0.158156
vt 0.485388 0.203178
vt 0.490000 0.250000
vt 0.485388 0.296822
vt 0.471731 0.341844
vt 0.449553 0.383337
vt 0.419706 0.419706
vt 0.383337 0.449553
vt 0.341844 0.471731
vt 0.031250 1.000000
vt 0.031250 0.500000
vt 0.000000 1.000000
vt 0.000000 0.500000
vt 0.750000 0.490000
vt 0.796822 0.485388
vt 0.841844 0.471731
vt 0.883337 0.449553
vt 0.919706 0.419706
vt 0.949553 0.383337
vt 0.971731 0.341844
vt 0.985388 0.296822
vt 0.990000 0.250000
vt 0.985388 0.203178
vt 0.971731 0.158156
vt 0.949553 0.116663
vt 0.919706 0.080294
vt 0.883337 0.050447
vt 0.841844 0.028269
vt 0.796822 0.014612
vt 0.750000 0.010000
vt 0.703178 0.014612
vt 0.658156 0.028269
vt 0.616663 0.050447
vt 0.580294 0.080294
vt 0.550447 0.116663
vt 0.528269 0.158156
vt 0.514612 0.203178
vt 0.510000 0.250000
vt 0.514612 0.296822
vt 0.528269 0.341844
vt 0.550447 0.383337
vt 0.580294 0.419706
vt 0.616663 0.449553
vt 0.658156 0.471731
vt 0.703178 0.485388
s 0
usemtl Material
f 1/1/1 5/2/1 7/3/1 3/4/1
f 4/5/2 3/4/2 7/6/2 8/7/2
f 8/8/3 7/9/3 5/10/3 6/11/3
f 6/11/4 2/12/4 11/12/4 9/11/4
f 2/12/5 1/1/5 3/4/5 4/5/5
f 6/11/6 5/10/6 1/1/6 2/12/6
f 9/13/7 11/12/7 12/5/7 10/14/7
f 4/5/8 8/7/8 10/7/8 12/5/8
f 10/7/9 8/7/9 14/7/9 16/7/9
f 2/12/10 4/5/10 12/5/10 11/12/10
f 14/8/11 13/11/11 15/11/11 16/8/11
f 9/13/12 10/14/12 16/14/12 15/13/12
f 6/11/13 9/11/13 15/11/13 13/11/13
f 13/11/14 14/8/14 20/8/14 19/11/14
f 18/8/15 17/11/15 19/11/15 20/8/15
f 6/11/16 13/11/16 19/11/16 17/11/16
f 14/7/17 8/7/17 18/7/17 20/7/17
f 8/8/18 6/11/18 17/11/18 18/8/18
f 21/15/19 22/16/19 24/17/19 23/18/19
f 23/18/20 24/17/20 26/19/20 25/20/20
f 25/20/21 26/19/21 28/21/21 27/22/21
f 27/22/22 28/21/22 30/23/22 29/2/22
f 29/2/23 30/23/23 32/24/23 31/25/23
f 31/25/24 32/24/24 34/26/24 33/27/24
f 33/27/25 34/26/25 36/28/25 35/29/25
f 35/29/26 36/28/26 38/30/26 37/31/26
f 37/31/27 38/30/27 40/32/27 39/33/27
f 39/33/28 40/32/28 42/34/28 41/35/28
f 41/35/29 42/34/29 44/36/29 43/37/29
f 43/37/30 44/36/30 46/6/30 45/1/30
f 45/1/31 46/6/31 48/38/31 47/39/31
f 47/39/32 48/38/32 50/40/32 49/41/32
f 49/41/33 50/40/33 52/42/33 51/43/33
f 51/43/34 52/42/34 54/44/34 53/45/34
f 53/45/35 54/44/35 56/46/35 55/47/35
f 55/47/36 56/46/36 58/48/36 57/49/36
f 57/49/37 58/48/37 60/50/37 59/51/37
f 59/51/38 60/50/38 62/7/38 61/12/38
f 61/12/39 62/7/39 64/52/39 63/53/39
f 63/53/40 64/52/40 66/54/40 65/55/40
f 65/55/41 66/54/41 68/56/41 67/57/41
f 67/57/42 68/56/42 70/58/42 69/59/42
f 69/59/43 70/58/43 72/60/43 71/61/43
f 71/61/44 72/60/44 74/62/44 73/63/44
f 73/63/45 74/62/45 76/64/45 75/65/45
f 75/65/46 76/64/46 78/66/46 77/13/46
f 77/13/47 78/66/47 80/67/47 79/68/47
f 79/68/48 80/67/48 82/69/48 81/70/48
f 24/71/1 22/72/1 84/73/1 82/74/1 80/75/1 78/76/1 76/77/1 74/78/1 72/79/1 70/80/1 68/81/1 66/82/1 64/83/1 62/84/1 60/85/1 58/86/1 56/87/1 54/88/1 52/89/1 50/90/1 48/91/1 46/92/1 44/93/1 42/94/1 40/95/1 38/96/1 36/97/1 34/98/1 32/99/1 30/100/1 28/101/1 26/102/1
f 81/70/49 82/69/49 84/103/49 83/104/49
f 83/104/50 84/103/50 22/105/50 21/106/50
f 83/104/51 21/106/51 85/106/51 116/104/51
f 85/107/52 86/108/52 87/109/52 88/110/52 89/111/52 90/112/52 91/113/52 92/114/52 93/115/52 94/116/52 95/117/52 96/118/52 97/119/52 98/120/52 99/121/52 100/122/52 101/123/52 102/124/52 103/125/52 104/126/52 105/127/52 106/128/52 107/129/52 108/130/52 109/131/52 110/132/52 111/133/52 112/134/52 113/135/52 114/136/52 115/137/52 116/138/52
f 39/33/53 41/35/53 95/35/53 94/33/53
f 57/49/54 59/51/54 104/51/54 103/49/54
f 75/65/55 77/13/55 113/13/55 112/65/55
f 31/25/56 33/27/56 91/27/56 90/25/56
f 49/41/57 51/43/57 100/43/57 99/41/57
f 67/57/58 69/59/58 109/59/58 108/57/58
f 23/18/59 25/20/59 87/20/59 86/18/59
f 41/35/60 43/37/60 96/37/60 95/35/60
f 59/51/61 61/12/61 105/12/61 104/51/61
f 77/13/62 79/68/62 114/68/62 113/13/62
f 33/27/63 35/29/63 92/29/63 91/27/63
f 51/43/64 53/45/64 101/45/64 100/43/64
f 69/59/65 71/61/65 110/61/65 109/59/65
f 25/20/66 27/22/66 88/22/66 87/20/66
f 43/37/67 45/1/67 97/1/67 96/37/67
f 61/12/68 63/53/68 106/53/68 105/12/68
f 79/68/69 81/70/69 115/70/69 114/68/69
f 35/29/70 37/31/70 93/31/70 92/29/70
f 53/45/71 55/47/71 102/47/71 101/45/71
f 71/61/72 73/63/72 111/63/72 110/61/72
f 27/22/73 29/2/73 89/2/73 88/22/73
f 45/1/74 47/39/74 98/39/74 97/1/74
f 63/53/75 65/55/75 107/55/75 106/53/75
f 81/70/76 83/104/76 116/104/76 115/70/76
f 37/31/77 39/33/77 94/33/77 93/31/77
f 55/47/78 57/49/78 103/49/78 102/47/78
f 73/63/79 75/65/79 112/65/79 111/63/79
f 29/2/80 31/25/80 90/25/80 89/2/80
f 47/39/81 49/41/81 99/41/81 98/39/81
f 65/55/82 67/57/82 108/57/82 107/55/82
f 21/15/83 23/18/83 86/18/83 85/15/83
