{"asset":{"version":"2.0","generator":"Blockbench 4.11.1 glTF exporter"},"scenes":[{"nodes":[2],"name":"blockbench_export"}],"scene":0,"nodes":[{"translation":[0,0.625,0],"name":"Window","mesh":0},{"translation":[-0.125,-0.1875,0],"name":"Brace","mesh":1},{"children":[0,1]}],"bufferViews":[{"buffer":0,"byteOffset":0,"byteLength":2784,"target":34962,"byteStride":12},{"buffer":0,"byteOffset":2784,"byteLength":2784,"target":34962,"byteStride":12},{"buffer":0,"byteOffset":5568,"byteLength":1856,"target":34962,"byteStride":8},{"buffer":0,"byteOffset":7424,"byteLength":696,"target":34963},{"buffer":0,"byteOffset":8120,"byteLength":2592,"target":34962,"byteStride":12},{"buffer":0,"byteOffset":10712,"byteLength":2592,"target":34962,"byteStride":12},{"buffer":0,"byteOffset":13304,"byteLength":1728,"target":34962,"byteStride":8},{"buffer":0,"byteOffset":15032,"byteLength":648,"target":34963}],"buffers":[{"byteLength":15680,"uri":"data:application/octet-stream;base64,"}],"accessors":[{"bufferView":0,"componentType":5126,"count":232,"max":[0.0625,1.6875,0.8125],"min":[-0.1875,-0.625,-0.8125],"type":"VEC3"},{"bufferView":1,"componentType":5126,"count":232,"max":[1,0.9333456158638,1],"min":[-1,-1,-1],"type":"VEC3"},{"bufferView":2,"componentType":5126,"count":232,"max":[0.4140625,0.5465070009231567],"min":[0,0],"type":"VEC2"},{"bufferView":3,"componentType":5123,"count":348,"max":[231],"min":[0],"type":"SCALAR"},{"bufferView":4,"componentType":5126,"count":216,"max":[0.0625,2.1698107719421387,0.6875],"min":[-0.0625,0.1875,-0.6875],"type":"VEC3"},{"bufferView":5,"componentType":5126,"count":216,"max":[1,1,1],"min":[-1,-1,-1],"type":"VEC3"},{"bufferView":6,"componentType":5126,"count":216,"max":[0.90625,0.90625],"min":[0,0],"type":"VEC2"},{"bufferView":7,"componentType":5123,"count":324,"max":[215],"min":[0],"type":"SCALAR"}],"materials":[{"pbrMetallicRoughness":{"metallicFactor":0,"roughnessFactor":1,"baseColorTexture":{"index":0}},"alphaMode":"MASK","alphaCutoff":0.05,"doubleSided":true},{"pbrMetallicRoughness":{"metallicFactor":0,"roughnessFactor":1,"baseColorTexture":{"index":1}},"alphaMode":"MASK","alphaCutoff":0.05,"doubleSided":true}],"textures":[{"sampler":0,"source":0,"name":"window.png"},{"sampler":1,"source":1,"name":"brace"}],"samplers":[{"magFilter":9728,"minFilter":9728,"wrapS":33071,"wrapT":33071},{"magFilter":9728,"minFilter":9728,"wrapS":33071,"wrapT":33071}],"images":[{"mimeType":"image/png","uri":"data:image/png;base64,"},{"mimeType":"image/png","uri":"data:image/png;base64,"}],"meshes":[{"primitives":[{"mode":4,"attributes":{"POSITION":0,"NORMAL":1,"TEXCOORD_0":2},"indices":3,"material":0}]},{"primitives":[{"mode":4,"attributes":{"POSITION":4,"NORMAL":5,"TEXCOORD_0":6},"indices":7,"material":1}]}]}